# xmcd CD database file
#
# Track frame offsets:
#	150
#	20098
#	40683
#	62063
#	82010
#
# Disc length: 1366 seconds
#
# Revision: 2
# Processed by: cddbd v1.5.2PL0 Copyright (c) Steve Scherf et al.
# Submitted via: CDex 1.70beta2
#
DISCID=3a055405
DTITLE=TOKIO - ひかりのまち
DYEAR=2007
DGENRE=JPop
TTITLE0=ひかりのまち
TTITLE1=ラン・フリー (スワン・ダンスを君と)
TTITLE2=Sweet Sick Honey
TTITLE3=ひかりのまち (Backing Track)
TTITLE4=ラン・フリー (スワン・ダンスを君と) (Backing Track)
EXTD=YEAR: 2007
EXTT0=
EXTT1=
EXTT2=
EXTT3=
EXTT4=
PLAYORDER=
